# xmcd
#
# Track frame offsets: 
#        182
#        19152
#        37707
#        55997
#        57317
#        75265
#        96670
#        113452
#        132615
#        150207
#        174497
#        197332
#        215915
#        233400
#
# Disc length: 3590 seconds
#
# Revision: 4
# Processed by: cddbd v1.5.2PL0 Copyright (c) Steve Scherf et al.
# Submitted via: ExactAudioCopy v0.99pb5
#
DISCID=aa0e040e
DTITLE=Maysa - All My Life
DYEAR=2000
DGENRE=Jazz
TTITLE0=Got To Be Strong
TTITLE1=Mirrors
TTITLE2=The Bottle
TTITLE3=Aria De La Mia Vita
TTITLE4=All My Life
TTITLE5=Pressure
TTITLE6=Sunshine
TTITLE7=Blue Light
TTITLE8=Hooked On Your Love
TTITLE9=Shadows And The Light
TTITLE10=Earth Child
TTITLE11=Compliments
TTITLE12=Closure
TTITLE13=The Bottle (remix)
EXTD=
EXTT0=
EXTT1=
EXTT2=
EXTT3=
EXTT4=
EXTT5=
EXTT6=
EXTT7=
EXTT8=
EXTT9=
EXTT10=
EXTT11=
EXTT12=
EXTT13=
PLAYORDER=
